<svg width="125" height="126" viewBox="0 0 125 126" fill="none" xmlns="http://www.w3.org/2000/svg">
<path d="M115.565 63.0563C115.653 92.4318 91.5598 116.559 62.3862 116.49C33.3262 116.424 9.38302 92.3096 9.43416 62.8959C9.48531 33.6006 33.4152 9.46748 62.5926 9.50948C91.7132 9.55149 115.713 33.7037 115.565 63.0563ZM13.9068 62.9532C13.8102 89.9041 35.6298 111.935 62.3956 111.998C89.2353 112.061 111.087 90.0454 111.134 63.0925C111.182 36.0481 89.3301 14.036 62.5813 13.9997C35.806 13.9615 13.8632 35.9373 13.9068 62.9532Z" fill="#FCEE21" fill-opacity="0.15"/>
<path d="M62.5211 18.1603C86.3821 17.9696 107.048 38.0137 106.985 63.0312C106.921 88.2832 86.5503 107.86 62.4738 107.841C38.0081 107.822 17.9454 87.5261 18.0153 62.8576C18.0871 38.0824 38.3407 18.0268 62.5211 18.1603ZM64.5714 100.377C64.5733 100.377 64.5771 100.377 64.5789 100.377C64.5789 101.075 64.6111 101.777 64.5695 102.473C64.5317 103.114 64.7528 103.262 65.3877 103.22C70.4143 102.898 75.1649 101.573 79.7002 99.3855C80.3559 99.069 80.337 98.7639 80.0139 98.2223C79.3317 97.0819 78.6835 95.9187 78.0448 94.7535C77.5837 93.9125 77.7273 93.0811 78.2508 92.3317C78.7818 91.5689 79.5868 91.4335 80.4428 91.546C81.2459 91.6509 81.6957 92.2516 82.0755 92.8733C82.7369 93.9526 83.3567 95.0586 83.969 96.1685C84.2241 96.6281 84.4641 96.7272 84.9289 96.4011C89.0692 93.4797 92.6237 89.9766 95.4355 85.7221C95.7776 85.2053 95.6415 84.9594 95.154 84.6924C94.0221 84.0707 92.8883 83.4452 91.796 82.7549C90.5507 81.9692 90.2125 80.6763 90.8814 79.5684C91.5334 78.4909 92.8864 78.2068 94.1109 78.9047C95.1785 79.5131 96.2519 80.1138 97.2988 80.7583C97.8713 81.1111 98.2077 81.0062 98.4553 80.3845C98.8313 79.4425 99.2584 78.5233 99.6306 77.5794C101.071 73.9257 101.866 70.1213 102.223 66.2139C102.293 65.4435 102.063 65.1212 101.246 65.1555C99.9594 65.2108 98.6669 65.1899 97.3781 65.1574C96.2538 65.1307 95.4866 64.4213 95.307 63.3191C95.0897 61.9862 96.027 60.8572 97.5595 60.7504C98.7803 60.6665 100.014 60.6818 101.239 60.7237C102.046 60.7504 102.322 60.4167 102.216 59.6501C102.087 58.7081 101.983 57.7622 101.855 56.8202C101.32 52.888 100.103 49.1675 98.4571 45.5748C98.1491 44.9017 97.8619 44.8406 97.2591 45.2297C96.2519 45.878 95.1993 46.4539 94.1506 47.0298C92.7768 47.7831 91.5182 47.497 90.8776 46.3185C90.2522 45.1706 90.6868 43.8986 91.9963 43.1167C92.9695 42.5332 93.9446 41.9478 94.9499 41.4253C95.6699 41.0515 95.8078 40.7197 95.2976 39.9874C92.4461 35.8875 88.9596 32.4511 84.9025 29.5792C84.4055 29.2264 84.1806 29.2836 83.899 29.8081C83.2717 30.9808 82.6254 32.146 81.9149 33.2692C81.1703 34.4477 80.0951 34.7681 78.9991 34.2436C77.8067 33.6735 77.4118 32.3481 78.1015 30.9923C78.6174 29.9778 79.2202 29.0052 79.7909 28.0193C80.4107 26.9495 80.4201 26.94 79.2769 26.3889C74.9136 24.2874 70.2971 23.147 65.4992 22.6798C64.7925 22.6112 64.543 22.8629 64.5657 23.578C64.6073 24.8156 64.5865 26.0551 64.5733 27.2928C64.5582 28.7173 63.7173 29.6727 62.4606 29.7203C61.1964 29.7699 60.2591 28.887 60.1571 27.4663C60.0928 26.5815 60.1325 25.689 60.1325 24.8004C60.1306 22.6894 60.1269 22.6436 58.0614 22.8553C53.5791 23.3148 49.3028 24.5296 45.2418 26.5166C44.5578 26.8523 44.4671 27.2012 44.8488 27.8401C45.5158 28.9537 46.147 30.0903 46.7517 31.2383C47.2203 32.1307 47.0559 33.1052 46.3964 33.7898C45.7294 34.4801 44.7694 34.688 43.9776 34.2818C43.3408 33.9557 42.8967 33.4217 42.549 32.8039C41.9727 31.7837 41.3831 30.7711 40.8332 29.7356C40.5989 29.2932 40.3835 29.2264 39.9621 29.5163C35.7235 32.4263 32.1917 36.0457 29.2684 40.2849C28.9528 40.7426 29.0246 40.9657 29.5008 41.2308C30.7367 41.923 31.9933 42.5981 33.1479 43.4142C34.3119 44.2361 34.4858 45.4471 33.7677 46.4864C33.0477 47.5276 31.895 47.7526 30.6819 47.068C29.7219 46.5264 28.7695 45.9658 27.8171 45.4108C26.7381 44.7834 26.7041 44.7815 26.1617 45.9314C24.1114 50.2793 23.006 54.8751 22.5562 59.6578C22.4769 60.493 22.6545 60.7295 23.4538 60.7257C24.8049 60.7199 26.1617 60.596 27.5053 60.8038C28.8848 61.0174 29.5499 61.8813 29.446 63.2448C29.361 64.368 28.4445 65.1498 27.1633 65.1651C25.8726 65.1803 24.582 65.1937 23.2932 65.1613C22.6016 65.1441 22.4164 65.3958 22.5392 66.0766C22.6923 66.9157 22.7244 67.7776 22.8397 68.6262C23.3934 72.7109 24.529 76.6221 26.2921 80.3483C26.5869 80.9719 26.8647 81.1473 27.4996 80.743C28.5352 80.0813 29.6142 79.4883 30.6951 78.9009C31.9838 78.2011 33.2632 78.4967 33.9019 79.6008C34.5368 80.6973 34.1419 82.0074 32.9079 82.7702C31.9158 83.3842 30.92 83.9944 29.8863 84.5341C29.1266 84.9307 28.9944 85.2759 29.5235 86.0387C32.3372 90.091 35.8029 93.4587 39.7939 96.3096C40.3797 96.7291 40.6442 96.588 40.9485 96.0216C41.5626 94.8775 42.1806 93.7314 42.8741 92.6368C43.6337 91.4392 44.9489 91.1703 46.0752 91.8893C47.0465 92.5109 47.3054 93.8572 46.6553 95.0167C46.0374 96.1227 45.4214 97.2307 44.76 98.31C44.4349 98.8401 44.4916 99.1052 45.0737 99.3855C49.5239 101.516 54.1781 102.841 59.1026 103.201C59.9417 103.262 60.1949 103.055 60.1798 102.194C60.1533 100.772 60.0097 99.334 60.3045 97.921C60.5331 96.8245 61.512 96.1284 62.5967 96.239C63.7513 96.3554 64.5128 97.1315 64.5638 98.2852C64.596 98.9793 64.5714 99.6773 64.5714 100.377Z" fill="#FCEE21" fill-opacity="0.15"/>
<path d="M64.7778 50.6284C64.7778 54.0918 64.793 57.557 64.7664 61.0204C64.7607 61.7745 64.9792 62.3359 65.5206 62.8724C68.6459 65.9768 71.7483 69.1079 74.8469 72.241C75.907 73.314 76.0761 74.1846 75.4872 75.2156C74.75 76.5062 73.3441 76.8022 72.1852 75.8609C71.6229 75.4027 71.1308 74.8567 70.616 74.3412C68.1082 71.8286 65.5909 69.3237 63.1097 66.7844C62.574 66.2364 62.2263 66.1925 61.6374 66.729C55.7289 72.0997 49.7976 77.4437 43.8701 82.7934C43.5642 83.0702 43.2565 83.3432 42.9297 83.5952C41.8126 84.4563 40.6157 84.3398 39.7342 83.2974C38.9628 82.3848 39.1034 81.0655 40.1084 80.1453C41.8145 78.5854 43.5395 77.0427 45.2589 75.4963C49.3796 71.7866 53.5023 68.0808 57.6249 64.3711C57.7902 64.2222 57.9289 64.0351 58.1151 63.9243C59.9731 62.817 60.3284 61.1655 60.2847 59.0844C60.1555 52.9539 60.2353 46.8195 60.2448 40.6851C60.2448 40.1161 60.279 39.5357 60.393 38.982C60.6001 37.9816 61.5291 37.2752 62.5265 37.279C63.5315 37.2828 64.4206 37.9854 64.6296 39.0107C64.736 39.5357 64.7721 40.0818 64.774 40.6202C64.7835 43.9556 64.7778 47.2911 64.7778 50.6284Z" fill="#FCEE21" fill-opacity="0.15"/>
</svg>
